<?xml version="1.0" standalone="no"?>
<!DOCTYPE svg PUBLIC "-//W3C//DTD SVG 20010904//EN"
 "http://www.w3.org/TR/2001/REC-SVG-20010904/DTD/svg10.dtd">
<svg version="1.0" xmlns="http://www.w3.org/2000/svg"
 width="1280.000000pt" height="738.000000pt" viewBox="0 0 1280.000000 738.000000"
 preserveAspectRatio="xMidYMid meet">
<metadata>
Created by potrace 1.15, written by Peter Selinger 2001-2017
</metadata>
<g transform="translate(0.000000,738.000000) scale(0.100000,-0.100000)"
fill="#9c27b0" stroke="none">
<path d="M1384 7362 c-62 -22 -100 -52 -148 -116 -55 -74 -78 -163 -79 -304
-1 -110 1 -123 36 -226 42 -123 160 -363 262 -536 58 -98 221 -359 230 -368 1
-1 15 3 30 10 l28 12 -6 118 c-4 100 -3 119 11 132 12 10 22 12 35 5 15 -9 17
-27 17 -139 l0 -130 25 0 c20 0 34 14 72 73 213 329 362 620 429 837 35 117
46 190 43 286 -4 78 -9 99 -40 164 -40 84 -95 146 -154 175 -57 29 -156 27
-214 -4 -52 -27 -128 -96 -166 -151 -15 -22 -30 -40 -34 -40 -3 0 -19 23 -36
51 -79 134 -217 195 -341 151z m454 -1006 c32 -30 37 -40 37 -79 0 -120 -146
-166 -212 -68 -27 40 -29 71 -7 117 20 42 56 63 107 64 29 0 46 -8 75 -34z"/>
<path d="M475 6653 c-108 -12 -200 -61 -249 -131 -25 -35 -31 -55 -34 -110 -5
-81 19 -152 83 -247 l42 -63 -35 -7 c-69 -13 -141 -46 -186 -87 -125 -109
-126 -270 -4 -403 58 -64 105 -94 215 -137 69 -27 93 -32 205 -36 205 -7 429
26 831 124 l227 56 0 32 c0 31 -1 32 -87 55 -127 34 -153 46 -153 71 0 35 29
35 148 -4 93 -31 116 -36 123 -25 16 25 10 37 -63 126 -293 359 -565 612 -773
720 -125 64 -187 79 -290 66z m723 -718 c46 -19 72 -59 72 -112 0 -91 -98
-142 -178 -93 -79 48 -66 167 22 206 39 17 38 17 84 -1z"/>
<path d="M2945 6650 c-70 -11 -162 -38 -217 -66 -155 -78 -392 -306 -695 -667
-105 -126 -122 -150 -113 -167 5 -10 15 -22 20 -25 6 -3 59 12 120 34 107 39
133 43 143 17 10 -26 -15 -42 -125 -76 -96 -30 -113 -39 -116 -58 -4 -27 7
-32 158 -71 422 -109 808 -154 1017 -117 136 24 191 48 266 117 113 103 154
224 112 327 -33 79 -140 160 -255 193 -25 7 -47 14 -49 15 -2 2 15 24 37 49
60 68 85 128 90 212 3 59 0 80 -17 117 -59 120 -216 190 -376 166z m-512 -712
c24 -13 57 -68 57 -96 0 -37 -28 -86 -59 -105 -47 -28 -96 -22 -137 16 -106
97 10 251 139 185z"/>
<path d="M10672 6534 c-61 -31 -97 -106 -85 -177 7 -47 54 -104 100 -124 l33
-13 0 -292 c0 -245 -2 -290 -13 -278 -8 8 -72 87 -142 175 -143 178 -330 398
-416 490 l-58 60 -34 -75 c-85 -186 -150 -397 -183 -595 -20 -121 -23 -384 -5
-502 56 -380 263 -763 561 -1038 160 -148 337 -245 555 -303 93 -25 114 -27
310 -27 184 0 223 3 314 23 286 64 516 195 727 415 252 261 410 607 455 997
23 202 -9 577 -67 777 -41 143 -140 353 -167 353 -22 0 -112 -74 -212 -175
-112 -111 -291 -328 -420 -507 -39 -53 -73 -97 -77 -97 -5 -1 -8 133 -8 297
l0 299 41 19 c154 69 113 298 -55 312 -90 7 -157 -41 -177 -127 -16 -71 30
-159 98 -187 l33 -14 -1 -298 c0 -265 -2 -294 -15 -267 -7 17 -55 127 -105
245 -50 118 -120 271 -155 340 -63 122 -158 264 -174 258 -19 -7 -140 -163
-212 -273 -74 -112 -231 -412 -290 -552 -15 -35 -31 -63 -37 -63 -8 0 -11 94
-11 304 l0 304 45 22 c109 53 125 204 28 277 -45 34 -131 42 -181 17z m721
-1274 c62 -49 117 -240 117 -410 0 -113 -21 -260 -55 -389 -26 -96 -114 -331
-125 -331 -3 0 -11 15 -19 33 -123 307 -169 517 -158 727 9 174 51 308 114
366 33 31 90 32 126 4z m-829 -410 c200 -75 412 -301 558 -595 53 -105 101
-225 95 -232 -9 -8 -247 104 -343 162 -266 159 -473 397 -490 565 -6 52 10 89
46 107 35 18 71 16 134 -7z m1664 9 c86 -30 74 -153 -31 -309 -106 -157 -281
-303 -501 -417 -89 -46 -248 -115 -253 -109 -4 4 62 156 110 251 148 295 400
546 592 588 35 8 51 7 83 -4z"/>
<path d="M3914 5430 c0 -69 -2 -224 -4 -345 -4 -203 -3 -227 18 -310 59 -233
145 -324 372 -389 139 -41 491 -96 608 -96 26 0 41 -4 37 -10 -3 -5 -27 -10
-53 -10 -26 0 -104 -7 -172 -15 -440 -54 -626 -137 -723 -323 -69 -132 -72
-154 -72 -567 l0 -370 290 -3 c386 -4 506 13 658 89 175 89 244 273 296 784
l17 170 12 -120 c54 -510 146 -729 345 -824 135 -64 145 -66 554 -66 l373 0 2
225 c4 325 -1 434 -23 535 -22 103 -71 214 -118 267 -97 111 -292 170 -695
213 -76 8 -140 16 -143 18 -2 2 43 7 99 11 264 18 505 73 624 142 62 36 141
126 174 196 55 119 63 164 67 403 2 121 4 284 6 363 l2 142 -108 0 c-60 0
-185 5 -278 11 -277 18 -480 -17 -615 -107 -129 -86 -199 -280 -253 -704 -11
-85 -22 -171 -23 -190 -2 -19 -7 8 -11 60 -53 637 -155 835 -476 922 -70 19
-104 21 -431 22 l-355 1 -1 -125z m820 -248 c52 -35 104 -132 155 -287 36
-110 81 -297 94 -387 5 -36 4 -38 -21 -38 -45 0 -226 47 -320 84 -303 117
-426 232 -367 346 29 55 116 63 241 20 31 -11 58 -20 60 -20 1 0 -7 27 -17 61
-37 119 -19 217 44 244 40 18 81 11 131 -23z m1087 -11 c25 -25 29 -37 29 -84
0 -47 -19 -128 -45 -189 -6 -15 0 -14 57 4 45 14 83 18 132 16 62 -3 71 -7 97
-36 60 -67 23 -163 -86 -227 -104 -62 -498 -175 -606 -175 -35 0 -35 5 -10
120 26 114 72 243 132 366 100 205 219 286 300 205z m-556 -762 c83 -51 93
-174 18 -239 -61 -54 -150 -52 -208 5 -79 80 -48 212 60 250 45 16 86 11 130
-16z m252 -330 c211 -46 451 -148 532 -227 73 -71 86 -145 34 -194 -22 -20
-34 -23 -101 -22 -52 1 -94 8 -130 22 -48 18 -53 19 -47 4 21 -55 37 -143 33
-189 -12 -136 -154 -155 -244 -34 -61 83 -156 351 -194 547 -11 58 -20 107
-20 110 0 9 43 3 137 -17z m-522 -51 c-11 -81 -52 -230 -90 -330 -102 -264
-211 -381 -316 -338 -70 29 -76 108 -22 284 5 16 3 18 -18 12 -112 -32 -145
-37 -187 -31 -63 9 -102 49 -102 105 0 110 83 171 362 264 130 44 293 83 351
85 l29 1 -7 -52z"/>
<path d="M1915 5514 c-16 -24 -15 -26 53 -112 37 -48 71 -92 75 -99 12 -19 -4
-43 -27 -43 -17 0 -41 25 -95 100 -66 91 -74 99 -93 89 -20 -11 -21 -17 -15
-145 12 -248 53 -549 98 -727 75 -298 175 -460 331 -536 232 -114 418 16 418
292 0 71 2 78 18 72 132 -56 194 -65 278 -40 76 22 143 88 169 165 26 77 18
196 -19 275 -79 172 -178 268 -421 402 -151 84 -453 219 -692 309 l-61 23 -17
-25z m285 -289 c40 -21 60 -53 60 -98 0 -74 -45 -121 -115 -121 -67 0 -115 49
-115 118 0 88 91 142 170 101z"/>
<path d="M1380 5454 c-384 -155 -680 -323 -830 -473 -122 -121 -160 -204 -160
-357 0 -67 4 -89 26 -133 31 -61 81 -102 149 -121 58 -16 173 -9 246 17 l56
19 0 -91 c0 -116 25 -186 88 -244 137 -126 353 -76 507 118 96 121 143 246
187 501 35 199 85 739 70 754 -2 2 -15 7 -29 11 -23 5 -31 -4 -93 -95 -68
-100 -99 -123 -114 -83 -7 19 2 36 81 143 48 66 56 83 46 95 -7 8 -20 15 -29
15 -9 -1 -99 -34 -201 -76z m78 -240 c70 -49 66 -161 -8 -199 -70 -36 -148 -2
-171 74 -22 74 32 140 116 141 22 0 51 -7 63 -16z"/>
<path d="M8314 5142 c-134 -47 -221 -160 -232 -299 l-5 -64 -26 24 c-177 163
-447 113 -553 -102 -19 -39 -23 -62 -23 -146 0 -89 3 -105 27 -150 14 -27 40
-63 57 -80 17 -16 31 -33 31 -36 0 -3 -23 -6 -51 -8 -117 -5 -233 -82 -286
-189 -25 -50 -28 -68 -28 -152 0 -116 22 -168 101 -247 63 -61 138 -93 220
-93 l56 0 -36 -41 c-64 -75 -81 -122 -81 -229 0 -84 3 -102 28 -151 65 -134
221 -216 360 -190 71 13 135 43 182 86 21 19 38 35 39 35 0 0 2 -25 3 -56 5
-122 99 -248 216 -292 78 -29 176 -29 254 0 121 45 213 177 213 304 l0 56 46
-41 c70 -61 140 -84 244 -79 66 4 96 10 135 30 162 84 234 283 161 443 -15 33
-43 76 -62 96 l-35 36 62 7 c284 29 411 355 224 574 -49 56 -145 103 -228 109
l-64 5 30 32 c16 17 43 59 59 94 79 165 4 369 -167 452 -42 21 -65 25 -145 25
-106 0 -154 -17 -228 -80 l-39 -34 -6 54 c-12 120 -98 240 -205 287 -66 30
-181 34 -248 10z m308 -609 c94 -29 209 -103 273 -176 25 -29 64 -88 86 -132
121 -245 79 -514 -111 -706 -118 -119 -240 -175 -400 -186 -311 -19 -591 200
-646 507 -36 198 31 408 174 547 167 163 397 217 624 146z"/>
<path d="M1720 4011 c-7 -13 -10 -302 -10 -867 l0 -847 -84 169 c-126 253
-241 413 -388 541 -242 210 -546 275 -689 146 -77 -69 -107 -169 -89 -296 48
-336 445 -541 1168 -602 l82 -7 0 -567 0 -566 -82 166 c-110 218 -199 350
-323 475 -112 113 -223 190 -335 233 -271 105 -474 30 -509 -186 -22 -136 25
-278 126 -385 90 -93 191 -155 359 -216 157 -58 449 -115 662 -128 l102 -7 0
-517 c0 -488 1 -518 18 -533 25 -23 48 -21 66 5 14 20 16 88 16 544 l0 521
103 7 c233 15 515 71 695 139 209 78 352 191 419 333 37 77 38 82 38 189 0
103 -2 113 -29 163 -66 118 -191 162 -361 127 -318 -66 -596 -345 -812 -814
l-53 -116 0 562 0 561 68 7 c434 42 708 109 901 222 80 47 194 152 228 210 87
150 84 349 -9 449 -162 176 -536 72 -811 -226 -98 -106 -195 -257 -293 -453
l-84 -170 0 857 c0 572 -3 864 -10 877 -7 12 -21 19 -40 19 -19 0 -33 -7 -40
-19z"/>
<path d="M11287 3694 c-4 -4 -7 -241 -7 -527 0 -286 -3 -517 -6 -514 -4 4 -26
51 -49 105 -157 371 -353 588 -571 633 -55 11 -67 11 -109 -5 -114 -44 -113
-168 3 -359 147 -244 363 -397 668 -473 l64 -16 0 -591 c0 -341 -4 -587 -9
-581 -5 5 -28 54 -51 109 -109 260 -269 531 -404 688 -216 251 -541 386 -713
298 -62 -31 -87 -73 -91 -152 -6 -105 39 -220 156 -395 217 -323 558 -540
1014 -644 l98 -22 2 -617 3 -616 30 0 30 0 3 616 2 617 98 22 c372 85 661 241
876 471 123 132 237 314 281 447 24 75 18 176 -14 220 -98 139 -386 91 -629
-104 -195 -156 -388 -447 -553 -831 -28 -65 -52 -119 -55 -122 -2 -2 -4 262
-4 587 l0 591 43 11 c147 37 306 105 407 173 66 45 186 163 235 232 47 66 106
178 125 239 7 21 10 61 7 89 -8 90 -84 132 -197 109 -211 -44 -412 -269 -565
-632 -15 -36 -32 -76 -39 -90 -8 -19 -12 99 -16 505 l-5 530 -25 3 c-14 2 -29
0 -33 -4z"/>
<path d="M5197 3014 c-4 -4 -7 -223 -7 -486 0 -263 -2 -478 -5 -478 -3 0 -40
20 -83 45 -223 129 -440 166 -596 104 -82 -33 -118 -79 -124 -159 -9 -117 65
-187 225 -212 128 -20 281 18 470 117 59 30 108 55 110 55 2 0 3 -159 3 -354
l0 -354 -137 69 c-160 81 -258 109 -379 109 -186 0 -294 -74 -294 -200 0 -128
108 -200 299 -200 129 0 277 45 425 130 38 22 73 40 77 40 5 0 10 -276 11
-612 l3 -613 30 0 30 0 3 618 c1 339 5 617 7 617 3 0 37 -18 76 -40 169 -96
308 -140 440 -140 192 0 299 72 299 200 0 59 -10 81 -53 128 -66 69 -243 92
-403 52 -45 -11 -137 -49 -214 -87 -74 -38 -138 -69 -142 -71 -5 -2 -8 159 -8
357 0 199 1 361 3 361 2 0 39 -20 83 -45 167 -96 302 -138 439 -139 95 -1 175
19 228 56 57 40 84 142 56 215 -28 74 -120 122 -254 130 -136 8 -298 -39 -465
-137 -41 -24 -77 -44 -80 -44 -3 -1 -7 217 -10 484 l-5 485 -25 3 c-14 2 -29
0 -33 -4z"/>
<path d="M8401 2617 c-8 -10 -12 -191 -13 -613 l-3 -599 -29 80 c-64 180 -171
371 -277 492 -195 224 -445 302 -510 159 -24 -53 -24 -89 1 -167 45 -145 174
-312 335 -432 90 -68 270 -159 399 -202 l86 -30 0 -510 0 -510 -49 120 c-61
151 -90 209 -158 315 -104 160 -224 275 -353 336 -65 31 -156 42 -200 24 -150
-62 -66 -349 167 -571 128 -121 295 -218 500 -289 l92 -32 3 -81 c2 -63 7 -82
21 -91 12 -8 22 -8 35 0 13 9 18 28 20 91 l3 81 92 32 c212 73 369 164 501
290 93 89 152 169 202 273 157 332 -134 420 -430 131 -124 -122 -252 -334
-335 -559 l-30 -80 0 515 -1 515 98 34 c234 81 444 212 559 349 147 174 214
355 165 452 -65 130 -282 70 -479 -132 -115 -120 -211 -280 -299 -502 l-43
-111 -1 606 c0 457 -3 608 -12 617 -16 16 -43 15 -57 -1z"/>
</g>
</svg>
